<svg width="44" height="50" viewBox="0 0 44 50" fill="none" xmlns="http://www.w3.org/2000/svg">
<path fill-rule="evenodd" clip-rule="evenodd" d="M12.625 4.6875C12.625 3.4443 13.1189 2.25201 13.9979 1.37294C14.877 0.49386 16.0693 0 17.3125 0L26.6875 0C27.9307 0 29.123 0.49386 30.0021 1.37294C30.8811 2.25201 31.375 3.4443 31.375 4.6875V7.8125C31.375 9.0557 30.8811 10.248 30.0021 11.1271C29.123 12.0061 27.9307 12.5 26.6875 12.5H17.3125C16.0693 12.5 14.877 12.0061 13.9979 11.1271C13.1189 10.248 12.625 9.0557 12.625 7.8125V4.6875ZM28.25 4.6875C28.25 4.2731 28.0854 3.87567 27.7924 3.58265C27.4993 3.28962 27.1019 3.125 26.6875 3.125H17.3125C16.8981 3.125 16.5007 3.28962 16.2076 3.58265C15.9146 3.87567 15.75 4.2731 15.75 4.6875V7.8125C15.75 8.2269 15.9146 8.62433 16.2076 8.91735C16.5007 9.21038 16.8981 9.375 17.3125 9.375H26.6875C27.1019 9.375 27.4993 9.21038 27.7924 8.91735C28.0854 8.62433 28.25 8.2269 28.25 7.8125V4.6875Z" fill="#E0A64E"/>
<path d="M6.375 4.6875H9.5V7.8125H6.375C5.5462 7.8125 4.75134 8.14174 4.16529 8.72779C3.57924 9.31384 3.25 10.1087 3.25 10.9375V43.75C3.25 44.5788 3.57924 45.3737 4.16529 45.9597C4.75134 46.5458 5.5462 46.875 6.375 46.875H37.625C38.4538 46.875 39.2487 46.5458 39.8347 45.9597C40.4208 45.3737 40.75 44.5788 40.75 43.75V10.9375C40.75 10.1087 40.4208 9.31384 39.8347 8.72779C39.2487 8.14174 38.4538 7.8125 37.625 7.8125H34.5V4.6875H37.625C39.2826 4.6875 40.8723 5.34598 42.0444 6.51808C43.2165 7.69018 43.875 9.2799 43.875 10.9375V43.75C43.875 45.4076 43.2165 46.9973 42.0444 48.1694C40.8723 49.3415 39.2826 50 37.625 50H6.375C4.7174 50 3.12769 49.3415 1.95558 48.1694C0.78348 46.9973 0.125 45.4076 0.125 43.75V10.9375C0.125 9.2799 0.78348 7.69018 1.95558 6.51808C3.12769 5.34598 4.7174 4.6875 6.375 4.6875Z" fill="#E0A64E"/>
<path d="M21.9999 21.8186C27.1999 16.5905 40.2031 25.7374 21.9999 37.4999C3.7968 25.7374 16.7999 16.5936 21.9999 21.8186Z" fill="#E0A64E"/>
</svg>
